<svg xmlns="http://www.w3.org/2000/svg" viewBox="0 0 2930 2060" fill="currentColor" fill-rule="evenodd"><path d="M1809.50,2058.34C1797.94,2056.97 1789.75,2055.60 1783.43,2053.98C1758.54,2047.62 1740.07,2034.51 1726.47,2013.55C1719.66,2003.07 1716.26,1996.14 1710.72,1981.50C1704.92,1966.17 1701.83,1954.57 1698.06,1934.00C1693.85,1911.03 1691.59,1902.94 1686.35,1892.09C1678.20,1875.23 1663.57,1863.28 1641.96,1855.85C1633.01,1852.77 1631.75,1852.59 1618.50,1852.63C1606.22,1852.66 1603.39,1853.00 1595.50,1855.38C1568.56,1863.50 1548.08,1876.63 1498.43,1917.60C1444.27,1962.29 1426.42,1972.70 1393.89,1978.55C1381.60,1980.76 1360.35,1981.46 1347.50,1980.07C1300.50,1974.98 1267.09,1954.66 1253.96,1923.17C1247.48,1907.64 1243.28,1878.60 1244.47,1857.57C1246.10,1828.67 1251.90,1805.49 1269.50,1757.50C1295.11,1687.70 1299.66,1667.44 1301.97,1613.24C1303.50,1577.19 1301.05,1531.11 1296.37,1508.00C1292.85,1490.62 1285.54,1474.49 1274.63,1460.00C1266.63,1449.37 1247.23,1430.46 1231.50,1417.95C1191.40,1386.07 1183.58,1379.60 1174.19,1370.57C1141.29,1338.87 1126.50,1309.43 1122.99,1268.63C1121.74,1254.04 1122.84,1238.74 1127.01,1213.00C1133.00,1176.00 1133.08,1164.38 1127.42,1152.43C1115.13,1126.44 1069.01,1122.52 1044.24,1145.34C1037.45,1151.61 1034.77,1156.97 1034.23,1165.36C1033.80,1172.06 1034.04,1173.12 1038.09,1182.50C1042.39,1192.46 1042.41,1192.56 1042.79,1206.50C1043.53,1233.51 1038.15,1249.88 1014.72,1291.97C995.47,1326.52 990.97,1341.05 991.02,1368.47C991.13,1439.55 1032.15,1546.59 1074.20,1585.52C1077.63,1588.70 1089.00,1598.14 1099.47,1606.50C1124.17,1626.23 1130.97,1633.65 1138.84,1649.51C1151.54,1675.05 1154.94,1709.07 1147.56,1736.61C1137.22,1775.16 1105.90,1807.49 1060.42,1826.56C1040.76,1834.80 1014.07,1841.66 954.00,1853.89C876.03,1869.76 847.27,1876.67 813.50,1887.67C773.81,1900.59 752.04,1911.32 689.00,1949.01C638.50,1979.20 619.81,1989.15 595.20,1998.93C554.90,2014.95 511.49,2020.51 473.00,2014.59C453.94,2011.65 441.91,2006.44 431.11,1996.44C422.99,1988.92 418.02,1981.15 406.83,1958.50C401.67,1948.05 396.01,1937.41 394.25,1934.86C381.04,1915.69 355.05,1906.65 279.50,1894.96C255.05,1891.18 239.84,1887.63 219.25,1880.92C171.68,1865.40 127.56,1842.36 90.00,1813.40C74.46,1801.42 47.43,1774.34 37.20,1760.50C17.55,1733.93 5.94,1706.47 1.90,1677.00C0.03,1663.42 0.29,1629.45 2.38,1614.00C8.96,1565.33 28.17,1520.44 57.47,1485.31C66.89,1474.01 75.69,1466.66 108.05,1443.07C121.95,1432.93 136.13,1422.00 139.56,1418.79C149.01,1409.96 149.25,1409.04 150.07,1379.00C150.71,1355.38 150.95,1352.84 153.43,1344.50C158.91,1326.10 167.59,1310.17 194.03,1270.00C215.59,1237.26 223.54,1223.46 227.58,1211.78C230.10,1204.47 230.42,1202.21 230.30,1192.50C230.17,1181.89 229.34,1176.24 221.48,1132.50C215.63,1099.93 216.23,1056.96 223.08,1018.00C232.65,963.56 255.00,914.34 289.38,872.00C300.91,857.79 314.24,845.04 330.91,832.27C356.69,812.52 366.00,802.09 366.00,792.93C366.00,786.14 362.04,771.79 345.50,718.50C336.31,688.88 333.20,674.88 331.90,657.15C327.47,597.08 341.53,528.82 370.06,471.88C397.70,416.71 436.41,372.26 486.00,338.77C493.43,333.75 504.00,326.43 509.50,322.50C534.48,304.65 551.10,297.58 616.50,277.01C646.97,267.43 663.86,261.16 678.97,253.82C690.28,248.32 692.23,246.96 699.98,239.13C704.68,234.38 716.82,219.47 726.98,206.00C746.92,179.53 753.03,172.57 773.34,153.15C809.65,118.46 852.94,83.26 893.00,55.83C937.14,25.62 971.84,11.60 1021.99,3.71C1033.78,1.85 1039.82,1.58 1069.50,1.56C1099.31,1.53 1105.53,1.81 1120.00,3.78C1182.02,12.25 1244.80,33.00 1298.34,62.75C1325.11,77.62 1337.80,87.06 1360.50,109.01C1392.80,140.24 1401.19,147.55 1414.58,156.18C1427.42,164.45 1446.51,171.59 1463.50,174.49C1474.76,176.41 1494.14,176.65 1509.00,175.06C1556.14,169.99 1621.76,183.65 1674.59,209.53C1767.92,255.25 1835.19,341.47 1855.96,442.00C1861.89,470.70 1862.33,476.30 1862.54,525.00C1862.74,575.06 1863.22,580.34 1869.00,596.16C1877.26,618.80 1890.55,632.94 1935.50,666.95C1954.60,681.41 1968.20,693.13 1976.13,701.99C1995.72,723.87 2010.09,752.59 2015.91,781.50C2020.77,805.60 2020.66,826.32 2015.47,870.50C2007.76,936.03 2012.41,961.85 2039.08,1001.50C2049.89,1017.58 2054.76,1022.75 2062.78,1026.69C2067.95,1029.23 2069.52,1029.50 2079.00,1029.50C2088.30,1029.50 2090.15,1029.19 2095.22,1026.82C2106.63,1021.47 2114.72,1011.16 2117.00,999.06C2118.20,992.67 2117.14,979.71 2113.39,955.00C2108.95,925.77 2101.73,894.61 2085.35,834.00C2058.83,735.89 2050.99,694.22 2049.34,642.50C2046.97,568.58 2069.63,516.40 2114.00,493.58C2131.36,484.65 2147.11,481.40 2168.89,482.27C2221.88,484.38 2272.65,520.81 2301.70,577.54C2312.40,598.44 2328.79,644.11 2341.38,688.11C2349.16,715.28 2358.89,753.69 2370.50,803.00C2386.05,869.10 2394.07,900.24 2396.85,905.42C2401.94,914.89 2411.29,918.80 2416.47,913.62C2421.19,908.90 2429.08,890.67 2443.80,850.50C2452.91,825.61 2458.82,807.25 2471.06,765.72C2484.86,718.93 2491.83,696.75 2506.36,653.50C2528.12,588.70 2541.18,556.88 2559.30,524.50C2579.08,489.17 2603.53,462.73 2627.50,450.73C2642.33,443.31 2666.24,439.34 2690.00,440.34C2720.36,441.63 2742.13,450.20 2760.13,467.97C2808.85,516.08 2813.88,625.48 2774.97,790.50C2768.22,819.09 2767.40,821.87 2750.97,872.00C2721.54,961.78 2717.51,982.18 2724.90,1004.00C2732.88,1027.58 2746.25,1047.76 2789.81,1101.91C2821.89,1141.79 2829.30,1153.04 2847.86,1190.00C2878.71,1251.46 2905.93,1330.96 2919.93,1400.50C2929.83,1449.66 2931.83,1510.78 2925.46,1569.50C2916.29,1653.95 2887.45,1742.44 2844.45,1818.00C2813.51,1872.38 2773.39,1915.24 2717.00,1954.19C2691.70,1971.66 2646.74,1995.41 2616.00,2007.54C2559.12,2029.99 2498.00,2043.79 2436.56,2048.07C2403.21,2050.39 2353.76,2048.44 2321.00,2043.52C2276.23,2036.78 2258.54,2030.01 2202.50,1998.14C2156.13,1971.77 2135.81,1964.73 2106.00,1964.68C2084.12,1964.65 2063.94,1969.50 2042.50,1979.95C2032.48,1984.84 2025.08,1989.86 2002.23,2007.34C1984.68,2020.75 1966.30,2029.94 1937.50,2039.68C1900.55,2052.18 1860.26,2059.18 1827.28,2058.85C1819.15,2058.77 1811.15,2058.54 1809.50,2058.34ZM2337.31,1662.52C2369.59,1655.68 2396.54,1621.22 2404.58,1576.50C2407.00,1563.09 2407.00,1537.21 2404.60,1524.07C2398.85,1492.61 2384.13,1466.01 2364.08,1450.83C2336.56,1430.00 2302.60,1432.74 2277.11,1457.85C2259.94,1474.76 2247.96,1500.49 2243.98,1529.00C2242.47,1539.86 2242.70,1563.48 2244.43,1574.24C2248.72,1600.86 2259.02,1623.39 2274.35,1639.65C2292.94,1659.38 2314.76,1667.30 2337.31,1662.52Z"/></svg>